<svg width="11" height="12" fill="none" xmlns="http://www.w3.org/2000/svg"><path opacity=".4" d="M10.923 4.941a.426.426 0 00-.49-.346.419.419 0 00-.354.478l.001.007c.435 2.504-1.289 4.878-3.85 5.303-2.563.426-4.993-1.26-5.428-3.763-.435-2.503 1.29-4.877 3.851-5.302a4.77 4.77 0 014.259 1.428l-1.894.616a.416.416 0 00-.27.528.43.43 0 00.54.265l2.565-.836a.419.419 0 00.292-.396V.418A.423.423 0 009.718 0a.423.423 0 00-.428.418v1.525c-2.2-2.045-5.682-1.96-7.775.19a5.288 5.288 0 00.195 7.598c2.2 2.046 5.682 1.96 7.775-.19a5.294 5.294 0 001.438-4.6z" fill="#fff"/></svg>