<svg width="92" height="53" fill="none" xmlns="http://www.w3.org/2000/svg"><path d="M15.936 7.824h4.992V30h-4.992v-9.408H7.552V30H2.56V7.824h4.992v8.48h8.384v-8.48zm15.564 0h4.992V30H31.5V7.824zm28.876 33.888V46H45.56V23.824h4.992v17.888h9.824zm12.222-6.816c0 1.088.128 2.07.384 2.944.278.875.662 1.632 1.152 2.272a5.321 5.321 0 001.856 1.44c.726.341 1.558.512 2.496.512.918 0 1.739-.17 2.464-.512a4.962 4.962 0 001.856-1.44c.512-.64.896-1.397 1.152-2.272.278-.875.416-1.856.416-2.944 0-1.088-.138-2.07-.416-2.944-.256-.896-.64-1.653-1.152-2.272a4.833 4.833 0 00-1.856-1.472c-.725-.341-1.546-.512-2.464-.512-.938 0-1.77.181-2.496.544a5.17 5.17 0 00-1.856 1.472c-.49.619-.874 1.376-1.152 2.272-.256.875-.384 1.845-.384 2.912zm16.928 0c0 1.899-.288 3.573-.864 5.024-.554 1.43-1.322 2.635-2.304 3.616-.981.96-2.154 1.685-3.52 2.176-1.344.49-2.794.736-4.352.736a12.4 12.4 0 01-4.288-.736 9.972 9.972 0 01-3.52-2.176c-1.002-.981-1.792-2.187-2.368-3.616-.576-1.45-.864-3.125-.864-5.024s.299-3.563.896-4.992c.598-1.45 1.398-2.667 2.4-3.648a10.128 10.128 0 013.52-2.208 12.22 12.22 0 014.224-.736c1.515 0 2.944.245 4.288.736a9.753 9.753 0 013.52 2.208c1.003.981 1.792 2.197 2.368 3.648.576 1.43.864 3.093.864 4.992zM45 9h45v5H45zM2 41h35v5H2z" fill="#fff"/></svg>